<svg width="295" height="506" xmlns="http://www.w3.org/2000/svg" xmlns:xlink="http://www.w3.org/1999/xlink" overflow="hidden"><defs><clipPath id="clip0"><rect x="113" y="-7" width="295" height="506"/></clipPath><linearGradient x1="65.6086" y1="453.414" x2="456.391" y2="38.5865" gradientUnits="userSpaceOnUse" spreadMethod="reflect" id="fill1"><stop offset="0" stop-color="#008037"/><stop offset="0.259" stop-color="#7ED957"/><stop offset="0.502" stop-color="#FFDE59"/><stop offset="0.749" stop-color="#FFDE59"/><stop offset="1" stop-color="#C9E265"/></linearGradient></defs><g clip-path="url(#clip0)" transform="translate(-113 7)"><path d="M259.635 205.37 377.508 137.539 377.508 165.764C337.458 188.981 297.409 212.198 257.359 235.416L257.359 207.191 259.18 206.28C259.18 206.28 259.635 205.825 259.635 205.825ZM226.867 431.624 257.359 414.325 257.359 366.07 257.359 344.673 257.359 270.014C295.588 248.162 333.817 225.856 372.046 204.004L372.046 204.004 408 183.518 408 182.152 408 155.293 408 155.293 408 118.419 408 118.419 408 107.038 408 79.7233C408 78.3577 407.09 76.9919 406.18 76.5367L262.82-6.31717C261.455-7.22764 260.09-7.22764 259.18-6.31717L115.82 76.5367C114.455 77.4472 114 78.3577 114 79.7233L114 419.333C114 420.699 114.91 422.064 115.82 422.52 117.186 423.43 118.551 423.43 119.461 422.52L197.285 377.906C198.65 376.996 199.105 376.085 199.105 374.719L199.105 340.121 199.105 305.523 199.105 270.469 199.105 148.009 199.105 129.345C199.105 127.979 200.015 126.613 200.926 126.158L227.777 110.68 227.777 148.009 227.777 192.623 227.777 192.623 227.777 195.355 227.777 254.081 227.777 289.134 227.777 297.328 227.322 297.328 227.322 398.392 114.91 461.67 114 499 227.322 432.99ZM257.359 92.0148 258.724 91.1044C260.09 90.1939 261.455 90.1939 262.365 91.1044L323.805 126.613C325.17 127.524 325.625 128.434 325.625 129.8 325.625 131.166 324.715 132.531 323.805 132.987L256.904 171.682 256.904 92.0148ZM358.393 111.59 262.82 56.5061C261.455 55.5957 260.09 55.5957 259.18 56.5061L170.889 107.493C169.523 108.404 169.068 109.314 169.068 110.68L169.068 356.055C169.068 357.42 168.158 358.786 167.248 359.241L150.409 369.256C149.043 370.167 147.678 370.167 146.768 369.256 145.403 368.346 144.947 367.435 144.947 366.07L144.947 96.5673C144.947 95.2015 145.858 93.8358 146.768 93.3806L260.09 27.8259C261.455 26.9154 262.82 26.9154 263.731 27.8259L377.053 93.3806C378.418 94.2911 378.873 95.2015 378.873 96.5673L378.873 100.209C378.873 101.575 377.963 102.941 377.053 103.396L363.399 111.135C362.034 112.045 360.669 112.045 359.758 111.135Z" fill="url(#fill1)" fill-rule="evenodd"/></g></svg>